mtllib DartBoard_Complete.mtl
o DartBoard_Base
v 0.057039 0.367601 0.300000
v 0.255296 1.645311 0.300000
v -0.255296 1.645311 0.300000
v -0.057039 0.367601 0.300000
v 0.255296 1.645311 0.306000
v 0.289335 1.864686 0.306000
v -0.289335 1.864686 0.306000
v -0.255296 1.645311 0.306000
v 0.289335 1.864686 0.300000
v 0.420433 2.709576 0.300000
v -0.420433 2.709576 0.300000
v -0.289335 1.864686 0.300000
v 0.420433 2.709576 0.306000
v 0.459992 2.964525 0.306000
v -0.459992 2.964525 0.306000
v -0.420433 2.709576 0.306000
v 0.167842 0.331983 0.300000
v 0.751230 1.485893 0.300000
v 0.265628 1.643675 0.300000
v 0.059348 0.367235 0.300000
v 0.751230 1.485893 0.306000
v 0.851394 1.684012 0.306000
v 0.301046 1.862831 0.306000
v 0.265628 1.643675 0.306000
v 0.851394 1.684012 0.300000
v 1.237160 2.447039 0.300000
v 0.437449 2.706881 0.300000
v 0.301046 1.862831 0.300000
v 1.237160 2.447039 0.306000
v 1.353567 2.677285 0.306000
v 0.478610 2.961576 0.306000
v 0.437449 2.706881 0.306000
v 0.262216 0.263869 0.300000
v 1.173628 1.181026 0.300000
v 0.760551 1.481144 0.300000
v 0.169925 0.330922 0.300000
v 1.173628 1.181026 0.306000
v 1.330112 1.338496 0.306000
v 0.861958 1.678630 0.306000
v 0.760551 1.481144 0.306000
v 1.330112 1.338496 0.300000
v 1.932786 1.944968 0.300000
v 1.252511 2.439217 0.300000
v 0.861958 1.678630 0.300000
v 1.932786 1.944968 0.306000
v 2.114646 2.127974 0.306000
v 1.370362 2.668728 0.306000
v 1.252511 2.439217 0.306000
v 0.330922 0.169925 0.300000
v 1.481144 0.760551 0.300000
v 1.181026 1.173628 0.300000
v 0.263869 0.262216 0.300000
v 1.481144 0.760551 0.306000
v 1.678630 0.861958 0.306000
v 1.338496 1.330112 0.306000
v 1.181026 1.173628 0.306000
v 1.678630 0.861958 0.300000
v 2.439217 1.252511 0.300000
v 1.944968 1.932786 0.300000
v 1.338496 1.330112 0.300000
v 2.439217 1.252511 0.306000
v 2.668728 1.370362 0.306000
v 2.127974 2.114646 0.306000
v 1.944968 1.932786 0.306000
v 0.367235 0.059348 0.300000
v 1.643675 0.265628 0.300000
v 1.485893 0.751230 0.300000
v 0.331983 0.167842 0.300000
v 1.643675 0.265628 0.306000
v 1.862831 0.301046 0.306000
v 1.684012 0.851394 0.306000
v 1.485893 0.751230 0.306000
v 1.862831 0.301046 0.300000
v 2.706881 0.437449 0.300000
v 2.447039 1.237160 0.300000
v 1.684012 0.851394 0.300000
v 2.706881 0.437449 0.306000
v 2.961576 0.478610 0.306000
v 2.677285 1.353567 0.306000
v 2.447039 1.237160 0.306000
v 0.367601 -0.057039 0.300000
v 1.645311 -0.255296 0.300000
v 1.645311 0.255296 0.300000
v 0.367601 0.057039 0.300000
v 1.645311 -0.255296 0.306000
v 1.864686 -0.289335 0.306000
v 1.864686 0.289335 0.306000
v 1.645311 0.255296 0.306000
v 1.864686 -0.289335 0.300000
v 2.709576 -0.420433 0.300000
v 2.709576 0.420433 0.300000
v 1.864686 0.289335 0.300000
v 2.709576 -0.420433 0.306000
v 2.964525 -0.459992 0.306000
v 2.964525 0.459992 0.306000
v 2.709576 0.420433 0.306000
v 0.331983 -0.167842 0.300000
v 1.485893 -0.751230 0.300000
v 1.643675 -0.265628 0.300000
v 0.367235 -0.059348 0.300000
v 1.485893 -0.751230 0.306000
v 1.684012 -0.851394 0.306000
v 1.862831 -0.301046 0.306000
v 1.643675 -0.265628 0.306000
v 1.684012 -0.851394 0.300000
v 2.447039 -1.237160 0.300000
v 2.706881 -0.437449 0.300000
v 1.862831 -0.301046 0.300000
v 2.447039 -1.237160 0.306000
v 2.677285 -1.353567 0.306000
v 2.961576 -0.478610 0.306000
v 2.706881 -0.437449 0.306000
v 0.263869 -0.262216 0.300000
v 1.181026 -1.173628 0.300000
v 1.481144 -0.760551 0.300000
v 0.330922 -0.169925 0.300000
v 1.181026 -1.173628 0.306000
v 1.338496 -1.330112 0.306000
v 1.678630 -0.861958 0.306000
v 1.481144 -0.760551 0.306000
v 1.338496 -1.330112 0.300000
v 1.944968 -1.932786 0.300000
v 2.439217 -1.252511 0.300000
v 1.678630 -0.861958 0.300000
v 1.944968 -1.932786 0.306000
v 2.127974 -2.114646 0.306000
v 2.668728 -1.370362 0.306000
v 2.439217 -1.252511 0.306000
v 0.169925 -0.330922 0.300000
v 0.760551 -1.481144 0.300000
v 1.173628 -1.181026 0.300000
v 0.262216 -0.263869 0.300000
v 0.760551 -1.481144 0.306000
v 0.861958 -1.678630 0.306000
v 1.330112 -1.338496 0.306000
v 1.173628 -1.181026 0.306000
v 0.861958 -1.678630 0.300000
v 1.252511 -2.439217 0.300000
v 1.932786 -1.944968 0.300000
v 1.330112 -1.338496 0.300000
v 1.252511 -2.439217 0.306000
v 1.370362 -2.668728 0.306000
v 2.114646 -2.127974 0.306000
v 1.932786 -1.944968 0.306000
v 0.059348 -0.367235 0.300000
v 0.265628 -1.643675 0.300000
v 0.751230 -1.485893 0.300000
v 0.167842 -0.331983 0.300000
v 0.265628 -1.643675 0.306000
v 0.301046 -1.862831 0.306000
v 0.851394 -1.684012 0.306000
v 0.751230 -1.485893 0.306000
v 0.301046 -1.862831 0.300000
v 0.437449 -2.706881 0.300000
v 1.237160 -2.447039 0.300000
v 0.851394 -1.684012 0.300000
v 0.437449 -2.706881 0.306000
v 0.478610 -2.961576 0.306000
v 1.353567 -2.677285 0.306000
v 1.237160 -2.447039 0.306000
v -0.057039 -0.367601 0.300000
v -0.255296 -1.645311 0.300000
v 0.255296 -1.645311 0.300000
v 0.057039 -0.367601 0.300000
v -0.255296 -1.645311 0.306000
v -0.289335 -1.864686 0.306000
v 0.289335 -1.864686 0.306000
v 0.255296 -1.645311 0.306000
v -0.289335 -1.864686 0.300000
v -0.420433 -2.709576 0.300000
v 0.420433 -2.709576 0.300000
v 0.289335 -1.864686 0.300000
v -0.420433 -2.709576 0.306000
v -0.459992 -2.964525 0.306000
v 0.459992 -2.964525 0.306000
v 0.420433 -2.709576 0.306000
v -0.167842 -0.331983 0.300000
v -0.751230 -1.485893 0.300000
v -0.265628 -1.643675 0.300000
v -0.059348 -0.367235 0.300000
v -0.751230 -1.485893 0.306000
v -0.851394 -1.684012 0.306000
v -0.301046 -1.862831 0.306000
v -0.265628 -1.643675 0.306000
v -0.851394 -1.684012 0.300000
v -1.237160 -2.447039 0.300000
v -0.437449 -2.706881 0.300000
v -0.301046 -1.862831 0.300000
v -1.237160 -2.447039 0.306000
v -1.353567 -2.677285 0.306000
v -0.478610 -2.961576 0.306000
v -0.437449 -2.706881 0.306000
v -0.262216 -0.263869 0.300000
v -1.173628 -1.181026 0.300000
v -0.760551 -1.481144 0.300000
v -0.169925 -0.330922 0.300000
v -1.173628 -1.181026 0.306000
v -1.330112 -1.338496 0.306000
v -0.861958 -1.678630 0.306000
v -0.760551 -1.481144 0.306000
v -1.330112 -1.338496 0.300000
v -1.932786 -1.944968 0.300000
v -1.252511 -2.439217 0.300000
v -0.861958 -1.678630 0.300000
v -1.932786 -1.944968 0.306000
v -2.114646 -2.127974 0.306000
v -1.370362 -2.668728 0.306000
v -1.252511 -2.439217 0.306000
v -0.330922 -0.169925 0.300000
v -1.481144 -0.760551 0.300000
v -1.181026 -1.173628 0.300000
v -0.263869 -0.262216 0.300000
v -1.481144 -0.760551 0.306000
v -1.678630 -0.861958 0.306000
v -1.338496 -1.330112 0.306000
v -1.181026 -1.173628 0.306000
v -1.678630 -0.861958 0.300000
v -2.439217 -1.252511 0.300000
v -1.944968 -1.932786 0.300000
v -1.338496 -1.330112 0.300000
v -2.439217 -1.252511 0.306000
v -2.668728 -1.370362 0.306000
v -2.127974 -2.114646 0.306000
v -1.944968 -1.932786 0.306000
v -0.367235 -0.059348 0.300000
v -1.643675 -0.265628 0.300000
v -1.485893 -0.751230 0.300000
v -0.331983 -0.167842 0.300000
v -1.643675 -0.265628 0.306000
v -1.862831 -0.301046 0.306000
v -1.684012 -0.851394 0.306000
v -1.485893 -0.751230 0.306000
v -1.862831 -0.301046 0.300000
v -2.706881 -0.437449 0.300000
v -2.447039 -1.237160 0.300000
v -1.684012 -0.851394 0.300000
v -2.706881 -0.437449 0.306000
v -2.961576 -0.478610 0.306000
v -2.677285 -1.353567 0.306000
v -2.447039 -1.237160 0.306000
v -0.367601 0.057039 0.300000
v -1.645311 0.255296 0.300000
v -1.645311 -0.255296 0.300000
v -0.367601 -0.057039 0.300000
v -1.645311 0.255296 0.306000
v -1.864686 0.289335 0.306000
v -1.864686 -0.289335 0.306000
v -1.645311 -0.255296 0.306000
v -1.864686 0.289335 0.300000
v -2.709576 0.420433 0.300000
v -2.709576 -0.420433 0.300000
v -1.864686 -0.289335 0.300000
v -2.709576 0.420433 0.306000
v -2.964525 0.459992 0.306000
v -2.964525 -0.459992 0.306000
v -2.709576 -0.420433 0.306000
v -0.331983 0.167842 0.300000
v -1.485893 0.751230 0.300000
v -1.643675 0.265628 0.300000
v -0.367235 0.059348 0.300000
v -1.485893 0.751230 0.306000
v -1.684012 0.851394 0.306000
v -1.862831 0.301046 0.306000
v -1.643675 0.265628 0.306000
v -1.684012 0.851394 0.300000
v -2.447039 1.237160 0.300000
v -2.706881 0.437449 0.300000
v -1.862831 0.301046 0.300000
v -2.447039 1.237160 0.306000
v -2.677285 1.353567 0.306000
v -2.961576 0.478610 0.306000
v -2.706881 0.437449 0.306000
v -0.263869 0.262216 0.300000
v -1.181026 1.173628 0.300000
v -1.481144 0.760551 0.300000
v -0.330922 0.169925 0.300000
v -1.181026 1.173628 0.306000
v -1.338496 1.330112 0.306000
v -1.678630 0.861958 0.306000
v -1.481144 0.760551 0.306000
v -1.338496 1.330112 0.300000
v -1.944968 1.932786 0.300000
v -2.439217 1.252511 0.300000
v -1.678630 0.861958 0.300000
v -1.944968 1.932786 0.306000
v -2.127974 2.114646 0.306000
v -2.668728 1.370362 0.306000
v -2.439217 1.252511 0.306000
v -0.169925 0.330922 0.300000
v -0.760551 1.481144 0.300000
v -1.173628 1.181026 0.300000
v -0.262216 0.263869 0.300000
v -0.760551 1.481144 0.306000
v -0.861958 1.678630 0.306000
v -1.330112 1.338496 0.306000
v -1.173628 1.181026 0.306000
v -0.861958 1.678630 0.300000
v -1.252511 2.439217 0.300000
v -1.932786 1.944968 0.300000
v -1.330112 1.338496 0.300000
v -1.252511 2.439217 0.306000
v -1.370362 2.668728 0.306000
v -2.114646 2.127974 0.306000
v -1.932786 1.944968 0.306000
v -0.059348 0.367235 0.300000
v -0.265628 1.643675 0.300000
v -0.751230 1.485893 0.300000
v -0.167842 0.331983 0.300000
v -0.265628 1.643675 0.306000
v -0.301046 1.862831 0.306000
v -0.851394 1.684012 0.306000
v -0.751230 1.485893 0.306000
v -0.301046 1.862831 0.300000
v -0.437449 2.706881 0.300000
v -1.237160 2.447039 0.300000
v -0.851394 1.684012 0.300000
v -0.437449 2.706881 0.306000
v -0.478610 2.961576 0.306000
v -1.353567 2.677285 0.306000
v -1.237160 2.447039 0.306000
v 0.000000 0.000000 0.312000
v 0.156000 0.000000 0.312000
v 0.155666 0.010203 0.312000
v 0.154665 0.020362 0.312000
v 0.153003 0.030434 0.312000
v 0.150684 0.040376 0.312000
v 0.147721 0.050145 0.312000
v 0.144125 0.059699 0.312000
v 0.139912 0.068997 0.312000
v 0.135100 0.078000 0.312000
v 0.129709 0.086669 0.312000
v 0.123763 0.094967 0.312000
v 0.117287 0.102858 0.312000
v 0.110309 0.110309 0.312000
v 0.102858 0.117287 0.312000
v 0.094967 0.123763 0.312000
v 0.086669 0.129709 0.312000
v 0.078000 0.135100 0.312000
v 0.068997 0.139912 0.312000
v 0.059699 0.144125 0.312000
v 0.050145 0.147721 0.312000
v 0.040376 0.150684 0.312000
v 0.030434 0.153003 0.312000
v 0.020362 0.154665 0.312000
v 0.010203 0.155666 0.312000
v 0.000000 0.156000 0.312000
v -0.010203 0.155666 0.312000
v -0.020362 0.154665 0.312000
v -0.030434 0.153003 0.312000
v -0.040376 0.150684 0.312000
v -0.050145 0.147721 0.312000
v -0.059699 0.144125 0.312000
v -0.068997 0.139912 0.312000
v -0.078000 0.135100 0.312000
v -0.086669 0.129709 0.312000
v -0.094967 0.123763 0.312000
v -0.102858 0.117287 0.312000
v -0.110309 0.110309 0.312000
v -0.117287 0.102858 0.312000
v -0.123763 0.094967 0.312000
v -0.129709 0.086669 0.312000
v -0.135100 0.078000 0.312000
v -0.139912 0.068997 0.312000
v -0.144125 0.059699 0.312000
v -0.147721 0.050145 0.312000
v -0.150684 0.040376 0.312000
v -0.153003 0.030434 0.312000
v -0.154665 0.020362 0.312000
v -0.155666 0.010203 0.312000
v -0.156000 0.000000 0.312000
v -0.155666 -0.010203 0.312000
v -0.154665 -0.020362 0.312000
v -0.153003 -0.030434 0.312000
v -0.150684 -0.040376 0.312000
v -0.147721 -0.050145 0.312000
v -0.144125 -0.059699 0.312000
v -0.139912 -0.068997 0.312000
v -0.135100 -0.078000 0.312000
v -0.129709 -0.086669 0.312000
v -0.123763 -0.094967 0.312000
v -0.117287 -0.102858 0.312000
v -0.110309 -0.110309 0.312000
v -0.102858 -0.117287 0.312000
v -0.094967 -0.123763 0.312000
v -0.086669 -0.129709 0.312000
v -0.078000 -0.135100 0.312000
v -0.068997 -0.139912 0.312000
v -0.059699 -0.144125 0.312000
v -0.050145 -0.147721 0.312000
v -0.040376 -0.150684 0.312000
v -0.030434 -0.153003 0.312000
v -0.020362 -0.154665 0.312000
v -0.010203 -0.155666 0.312000
v -0.000000 -0.156000 0.312000
v 0.010203 -0.155666 0.312000
v 0.020362 -0.154665 0.312000
v 0.030434 -0.153003 0.312000
v 0.040376 -0.150684 0.312000
v 0.050145 -0.147721 0.312000
v 0.059699 -0.144125 0.312000
v 0.068997 -0.139912 0.312000
v 0.078000 -0.135100 0.312000
v 0.086669 -0.129709 0.312000
v 0.094967 -0.123763 0.312000
v 0.102858 -0.117287 0.312000
v 0.110309 -0.110309 0.312000
v 0.117287 -0.102858 0.312000
v 0.123763 -0.094967 0.312000
v 0.129709 -0.086669 0.312000
v 0.135100 -0.078000 0.312000
v 0.139912 -0.068997 0.312000
v 0.144125 -0.059699 0.312000
v 0.147721 -0.050145 0.312000
v 0.150684 -0.040376 0.312000
v 0.153003 -0.030434 0.312000
v 0.154665 -0.020362 0.312000
v 0.155666 -0.010203 0.312000
v 0.156000 0.000000 0.310000
v 0.372000 0.000000 0.310000
v 0.155666 0.010203 0.310000
v 0.371204 0.024330 0.310000
v 0.154665 0.020362 0.310000
v 0.368817 0.048556 0.310000
v 0.153003 0.030434 0.310000
v 0.364852 0.072574 0.310000
v 0.150684 0.040376 0.310000
v 0.359324 0.096281 0.310000
v 0.147721 0.050145 0.310000
v 0.352258 0.119575 0.310000
v 0.144125 0.059699 0.310000
v 0.343683 0.142358 0.310000
v 0.139912 0.068997 0.310000
v 0.333637 0.164531 0.310000
v 0.135100 0.078000 0.310000
v 0.322161 0.186000 0.310000
v 0.129709 0.086669 0.310000
v 0.309307 0.206672 0.310000
v 0.123763 0.094967 0.310000
v 0.295127 0.226459 0.310000
v 0.117287 0.102858 0.310000
v 0.279684 0.245277 0.310000
v 0.110309 0.110309 0.310000
v 0.263044 0.263044 0.310000
v 0.102858 0.117287 0.310000
v 0.245277 0.279684 0.310000
v 0.094967 0.123763 0.310000
v 0.226459 0.295127 0.310000
v 0.086669 0.129709 0.310000
v 0.206672 0.309307 0.310000
v 0.078000 0.135100 0.310000
v 0.186000 0.322161 0.310000
v 0.068997 0.139912 0.310000
v 0.164531 0.333637 0.310000
v 0.059699 0.144125 0.310000
v 0.142358 0.343683 0.310000
v 0.050145 0.147721 0.310000
v 0.119575 0.352258 0.310000
v 0.040376 0.150684 0.310000
v 0.096281 0.359324 0.310000
v 0.030434 0.153003 0.310000
v 0.072574 0.364852 0.310000
v 0.020362 0.154665 0.310000
v 0.048556 0.368817 0.310000
v 0.010203 0.155666 0.310000
v 0.024330 0.371204 0.310000
v 0.000000 0.156000 0.310000
v 0.000000 0.372000 0.310000
v -0.010203 0.155666 0.310000
v -0.024330 0.371204 0.310000
v -0.020362 0.154665 0.310000
v -0.048556 0.368817 0.310000
v -0.030434 0.153003 0.310000
v -0.072574 0.364852 0.310000
v -0.040376 0.150684 0.310000
v -0.096281 0.359324 0.310000
v -0.050145 0.147721 0.310000
v -0.119575 0.352258 0.310000
v -0.059699 0.144125 0.310000
v -0.142358 0.343683 0.310000
v -0.068997 0.139912 0.310000
v -0.164531 0.333637 0.310000
v -0.078000 0.135100 0.310000
v -0.186000 0.322161 0.310000
v -0.086669 0.129709 0.310000
v -0.206672 0.309307 0.310000
v -0.094967 0.123763 0.310000
v -0.226459 0.295127 0.310000
v -0.102858 0.117287 0.310000
v -0.245277 0.279684 0.310000
v -0.110309 0.110309 0.310000
v -0.263044 0.263044 0.310000
v -0.117287 0.102858 0.310000
v -0.279684 0.245277 0.310000
v -0.123763 0.094967 0.310000
v -0.295127 0.226459 0.310000
v -0.129709 0.086669 0.310000
v -0.309307 0.206672 0.310000
v -0.135100 0.078000 0.310000
v -0.322161 0.186000 0.310000
v -0.139912 0.068997 0.310000
v -0.333637 0.164531 0.310000
v -0.144125 0.059699 0.310000
v -0.343683 0.142358 0.310000
v -0.147721 0.050145 0.310000
v -0.352258 0.119575 0.310000
v -0.150684 0.040376 0.310000
v -0.359324 0.096281 0.310000
v -0.153003 0.030434 0.310000
v -0.364852 0.072574 0.310000
v -0.154665 0.020362 0.310000
v -0.368817 0.048556 0.310000
v -0.155666 0.010203 0.310000
v -0.371204 0.024330 0.310000
v -0.156000 0.000000 0.310000
v -0.372000 0.000000 0.310000
v -0.155666 -0.010203 0.310000
v -0.371204 -0.024330 0.310000
v -0.154665 -0.020362 0.310000
v -0.368817 -0.048556 0.310000
v -0.153003 -0.030434 0.310000
v -0.364852 -0.072574 0.310000
v -0.150684 -0.040376 0.310000
v -0.359324 -0.096281 0.310000
v -0.147721 -0.050145 0.310000
v -0.352258 -0.119575 0.310000
v -0.144125 -0.059699 0.310000
v -0.343683 -0.142358 0.310000
v -0.139912 -0.068997 0.310000
v -0.333637 -0.164531 0.310000
v -0.135100 -0.078000 0.310000
v -0.322161 -0.186000 0.310000
v -0.129709 -0.086669 0.310000
v -0.309307 -0.206672 0.310000
v -0.123763 -0.094967 0.310000
v -0.295127 -0.226459 0.310000
v -0.117287 -0.102858 0.310000
v -0.279684 -0.245277 0.310000
v -0.110309 -0.110309 0.310000
v -0.263044 -0.263044 0.310000
v -0.102858 -0.117287 0.310000
v -0.245277 -0.279684 0.310000
v -0.094967 -0.123763 0.310000
v -0.226459 -0.295127 0.310000
v -0.086669 -0.129709 0.310000
v -0.206672 -0.309307 0.310000
v -0.078000 -0.135100 0.310000
v -0.186000 -0.322161 0.310000
v -0.068997 -0.139912 0.310000
v -0.164531 -0.333637 0.310000
v -0.059699 -0.144125 0.310000
v -0.142358 -0.343683 0.310000
v -0.050145 -0.147721 0.310000
v -0.119575 -0.352258 0.310000
v -0.040376 -0.150684 0.310000
v -0.096281 -0.359324 0.310000
v -0.030434 -0.153003 0.310000
v -0.072574 -0.364852 0.310000
v -0.020362 -0.154665 0.310000
v -0.048556 -0.368817 0.310000
v -0.010203 -0.155666 0.310000
v -0.024330 -0.371204 0.310000
v -0.000000 -0.156000 0.310000
v -0.000000 -0.372000 0.310000
v 0.010203 -0.155666 0.310000
v 0.024330 -0.371204 0.310000
v 0.020362 -0.154665 0.310000
v 0.048556 -0.368817 0.310000
v 0.030434 -0.153003 0.310000
v 0.072574 -0.364852 0.310000
v 0.040376 -0.150684 0.310000
v 0.096281 -0.359324 0.310000
v 0.050145 -0.147721 0.310000
v 0.119575 -0.352258 0.310000
v 0.059699 -0.144125 0.310000
v 0.142358 -0.343683 0.310000
v 0.068997 -0.139912 0.310000
v 0.164531 -0.333637 0.310000
v 0.078000 -0.135100 0.310000
v 0.186000 -0.322161 0.310000
v 0.086669 -0.129709 0.310000
v 0.206672 -0.309307 0.310000
v 0.094967 -0.123763 0.310000
v 0.226459 -0.295127 0.310000
v 0.102858 -0.117287 0.310000
v 0.245277 -0.279684 0.310000
v 0.110309 -0.110309 0.310000
v 0.263044 -0.263044 0.310000
v 0.117287 -0.102858 0.310000
v 0.279684 -0.245277 0.310000
v 0.123763 -0.094967 0.310000
v 0.295127 -0.226459 0.310000
v 0.129709 -0.086669 0.310000
v 0.309307 -0.206672 0.310000
v 0.135100 -0.078000 0.310000
v 0.322161 -0.186000 0.310000
v 0.139912 -0.068997 0.310000
v 0.333637 -0.164531 0.310000
v 0.144125 -0.059699 0.310000
v 0.343683 -0.142358 0.310000
v 0.147721 -0.050145 0.310000
v 0.352258 -0.119575 0.310000
v 0.150684 -0.040376 0.310000
v 0.359324 -0.096281 0.310000
v 0.153003 -0.030434 0.310000
v 0.364852 -0.072574 0.310000
v 0.154665 -0.020362 0.310000
v 0.368817 -0.048556 0.310000
v 0.155666 -0.010203 0.310000
v 0.371204 -0.024330 0.310000
v 3.000000 0.000000 0.296000
v 3.550000 0.000000 0.296000
v 2.993577 0.196209 0.296000
v 3.542399 0.232181 0.296000
v 2.974335 0.391579 0.296000
v 3.519629 0.463368 0.296000
v 2.942356 0.585271 0.296000
v 3.481788 0.692571 0.296000
v 2.897777 0.776457 0.296000
v 3.429037 0.918808 0.296000
v 2.840790 0.964318 0.296000
v 3.361602 1.141110 0.296000
v 2.771639 1.148050 0.296000
v 3.279772 1.358526 0.296000
v 2.690618 1.326866 0.296000
v 3.183898 1.570125 0.296000
v 2.598076 1.500000 0.296000
v 3.074390 1.775000 0.296000
v 2.494409 1.666711 0.296000
v 2.951717 1.972274 0.296000
v 2.380060 1.826284 0.296000
v 2.816404 2.161103 0.296000
v 2.255519 1.978037 0.296000
v 2.669031 2.340678 0.296000
v 2.121320 2.121320 0.296000
v 2.510229 2.510229 0.296000
v 1.978037 2.255519 0.296000
v 2.340678 2.669031 0.296000
v 1.826284 2.380060 0.296000
v 2.161103 2.816404 0.296000
v 1.666711 2.494409 0.296000
v 1.972274 2.951717 0.296000
v 1.500000 2.598076 0.296000
v 1.775000 3.074390 0.296000
v 1.326866 2.690618 0.296000
v 1.570125 3.183898 0.296000
v 1.148050 2.771639 0.296000
v 1.358526 3.279772 0.296000
v 0.964318 2.840790 0.296000
v 1.141110 3.361602 0.296000
v 0.776457 2.897777 0.296000
v 0.918808 3.429037 0.296000
v 0.585271 2.942356 0.296000
v 0.692571 3.481788 0.296000
v 0.391579 2.974335 0.296000
v 0.463368 3.519629 0.296000
v 0.196209 2.993577 0.296000
v 0.232181 3.542399 0.296000
v 0.000000 3.000000 0.296000
v 0.000000 3.550000 0.296000
v -0.196209 2.993577 0.296000
v -0.232181 3.542399 0.296000
v -0.391579 2.974335 0.296000
v -0.463368 3.519629 0.296000
v -0.585271 2.942356 0.296000
v -0.692571 3.481788 0.296000
v -0.776457 2.897777 0.296000
v -0.918808 3.429037 0.296000
v -0.964318 2.840790 0.296000
v -1.141110 3.361602 0.296000
v -1.148050 2.771639 0.296000
v -1.358526 3.279772 0.296000
v -1.326866 2.690618 0.296000
v -1.570125 3.183898 0.296000
v -1.500000 2.598076 0.296000
v -1.775000 3.074390 0.296000
v -1.666711 2.494409 0.296000
v -1.972274 2.951717 0.296000
v -1.826284 2.380060 0.296000
v -2.161103 2.816404 0.296000
v -1.978037 2.255519 0.296000
v -2.340678 2.669031 0.296000
v -2.121320 2.121320 0.296000
v -2.510229 2.510229 0.296000
v -2.255519 1.978037 0.296000
v -2.669031 2.340678 0.296000
v -2.380060 1.826284 0.296000
v -2.816404 2.161103 0.296000
v -2.494409 1.666711 0.296000
v -2.951717 1.972274 0.296000
v -2.598076 1.500000 0.296000
v -3.074390 1.775000 0.296000
v -2.690618 1.326866 0.296000
v -3.183898 1.570125 0.296000
v -2.771639 1.148050 0.296000
v -3.279772 1.358526 0.296000
v -2.840790 0.964318 0.296000
v -3.361602 1.141110 0.296000
v -2.897777 0.776457 0.296000
v -3.429037 0.918808 0.296000
v -2.942356 0.585271 0.296000
v -3.481788 0.692571 0.296000
v -2.974335 0.391579 0.296000
v -3.519629 0.463368 0.296000
v -2.993577 0.196209 0.296000
v -3.542399 0.232181 0.296000
v -3.000000 0.000000 0.296000
v -3.550000 0.000000 0.296000
v -2.993577 -0.196209 0.296000
v -3.542399 -0.232181 0.296000
v -2.974335 -0.391579 0.296000
v -3.519629 -0.463368 0.296000
v -2.942356 -0.585271 0.296000
v -3.481788 -0.692571 0.296000
v -2.897777 -0.776457 0.296000
v -3.429037 -0.918808 0.296000
v -2.840790 -0.964318 0.296000
v -3.361602 -1.141110 0.296000
v -2.771639 -1.148050 0.296000
v -3.279772 -1.358526 0.296000
v -2.690618 -1.326866 0.296000
v -3.183898 -1.570125 0.296000
v -2.598076 -1.500000 0.296000
v -3.074390 -1.775000 0.296000
v -2.494409 -1.666711 0.296000
v -2.951717 -1.972274 0.296000
v -2.380060 -1.826284 0.296000
v -2.816404 -2.161103 0.296000
v -2.255519 -1.978037 0.296000
v -2.669031 -2.340678 0.296000
v -2.121320 -2.121320 0.296000
v -2.510229 -2.510229 0.296000
v -1.978037 -2.255519 0.296000
v -2.340678 -2.669031 0.296000
v -1.826284 -2.380060 0.296000
v -2.161103 -2.816404 0.296000
v -1.666711 -2.494409 0.296000
v -1.972274 -2.951717 0.296000
v -1.500000 -2.598076 0.296000
v -1.775000 -3.074390 0.296000
v -1.326866 -2.690618 0.296000
v -1.570125 -3.183898 0.296000
v -1.148050 -2.771639 0.296000
v -1.358526 -3.279772 0.296000
v -0.964318 -2.840790 0.296000
v -1.141110 -3.361602 0.296000
v -0.776457 -2.897777 0.296000
v -0.918808 -3.429037 0.296000
v -0.585271 -2.942356 0.296000
v -0.692571 -3.481788 0.296000
v -0.391579 -2.974335 0.296000
v -0.463368 -3.519629 0.296000
v -0.196209 -2.993577 0.296000
v -0.232181 -3.542399 0.296000
v -0.000000 -3.000000 0.296000
v -0.000000 -3.550000 0.296000
v 0.196209 -2.993577 0.296000
v 0.232181 -3.542399 0.296000
v 0.391579 -2.974335 0.296000
v 0.463368 -3.519629 0.296000
v 0.585271 -2.942356 0.296000
v 0.692571 -3.481788 0.296000
v 0.776457 -2.897777 0.296000
v 0.918808 -3.429037 0.296000
v 0.964318 -2.840790 0.296000
v 1.141110 -3.361602 0.296000
v 1.148050 -2.771639 0.296000
v 1.358526 -3.279772 0.296000
v 1.326866 -2.690618 0.296000
v 1.570125 -3.183898 0.296000
v 1.500000 -2.598076 0.296000
v 1.775000 -3.074390 0.296000
v 1.666711 -2.494409 0.296000
v 1.972274 -2.951717 0.296000
v 1.826284 -2.380060 0.296000
v 2.161103 -2.816404 0.296000
v 1.978037 -2.255519 0.296000
v 2.340678 -2.669031 0.296000
v 2.121320 -2.121320 0.296000
v 2.510229 -2.510229 0.296000
v 2.255519 -1.978037 0.296000
v 2.669031 -2.340678 0.296000
v 2.380060 -1.826284 0.296000
v 2.816404 -2.161103 0.296000
v 2.494409 -1.666711 0.296000
v 2.951717 -1.972274 0.296000
v 2.598076 -1.500000 0.296000
v 3.074390 -1.775000 0.296000
v 2.690618 -1.326866 0.296000
v 3.183898 -1.570125 0.296000
v 2.771639 -1.148050 0.296000
v 3.279772 -1.358526 0.296000
v 2.840790 -0.964318 0.296000
v 3.361602 -1.141110 0.296000
v 2.897777 -0.776457 0.296000
v 3.429037 -0.918808 0.296000
v 2.942356 -0.585271 0.296000
v 3.481788 -0.692571 0.296000
v 2.974335 -0.391579 0.296000
v 3.519629 -0.463368 0.296000
v 2.993577 -0.196209 0.296000
v 3.542399 -0.232181 0.296000
v 0.000000 0.000000 -0.300000
v 3.550000 0.000000 -0.300000
v 3.542399 0.232181 -0.300000
v 3.519629 0.463368 -0.300000
v 3.481788 0.692571 -0.300000
v 3.429037 0.918808 -0.300000
v 3.361602 1.141110 -0.300000
v 3.279772 1.358526 -0.300000
v 3.183898 1.570125 -0.300000
v 3.074390 1.775000 -0.300000
v 2.951717 1.972274 -0.300000
v 2.816404 2.161103 -0.300000
v 2.669031 2.340678 -0.300000
v 2.510229 2.510229 -0.300000
v 2.340678 2.669031 -0.300000
v 2.161103 2.816404 -0.300000
v 1.972274 2.951717 -0.300000
v 1.775000 3.074390 -0.300000
v 1.570125 3.183898 -0.300000
v 1.358526 3.279772 -0.300000
v 1.141110 3.361602 -0.300000
v 0.918808 3.429037 -0.300000
v 0.692571 3.481788 -0.300000
v 0.463368 3.519629 -0.300000
v 0.232181 3.542399 -0.300000
v 0.000000 3.550000 -0.300000
v -0.232181 3.542399 -0.300000
v -0.463368 3.519629 -0.300000
v -0.692571 3.481788 -0.300000
v -0.918808 3.429037 -0.300000
v -1.141110 3.361602 -0.300000
v -1.358526 3.279772 -0.300000
v -1.570125 3.183898 -0.300000
v -1.775000 3.074390 -0.300000
v -1.972274 2.951717 -0.300000
v -2.161103 2.816404 -0.300000
v -2.340678 2.669031 -0.300000
v -2.510229 2.510229 -0.300000
v -2.669031 2.340678 -0.300000
v -2.816404 2.161103 -0.300000
v -2.951717 1.972274 -0.300000
v -3.074390 1.775000 -0.300000
v -3.183898 1.570125 -0.300000
v -3.279772 1.358526 -0.300000
v -3.361602 1.141110 -0.300000
v -3.429037 0.918808 -0.300000
v -3.481788 0.692571 -0.300000
v -3.519629 0.463368 -0.300000
v -3.542399 0.232181 -0.300000
v -3.550000 0.000000 -0.300000
v -3.542399 -0.232181 -0.300000
v -3.519629 -0.463368 -0.300000
v -3.481788 -0.692571 -0.300000
v -3.429037 -0.918808 -0.300000
v -3.361602 -1.141110 -0.300000
v -3.279772 -1.358526 -0.300000
v -3.183898 -1.570125 -0.300000
v -3.074390 -1.775000 -0.300000
v -2.951717 -1.972274 -0.300000
v -2.816404 -2.161103 -0.300000
v -2.669031 -2.340678 -0.300000
v -2.510229 -2.510229 -0.300000
v -2.340678 -2.669031 -0.300000
v -2.161103 -2.816404 -0.300000
v -1.972274 -2.951717 -0.300000
v -1.775000 -3.074390 -0.300000
v -1.570125 -3.183898 -0.300000
v -1.358526 -3.279772 -0.300000
v -1.141110 -3.361602 -0.300000
v -0.918808 -3.429037 -0.300000
v -0.692571 -3.481788 -0.300000
v -0.463368 -3.519629 -0.300000
v -0.232181 -3.542399 -0.300000
v -0.000000 -3.550000 -0.300000
v 0.232181 -3.542399 -0.300000
v 0.463368 -3.519629 -0.300000
v 0.692571 -3.481788 -0.300000
v 0.918808 -3.429037 -0.300000
v 1.141110 -3.361602 -0.300000
v 1.358526 -3.279772 -0.300000
v 1.570125 -3.183898 -0.300000
v 1.775000 -3.074390 -0.300000
v 1.972274 -2.951717 -0.300000
v 2.161103 -2.816404 -0.300000
v 2.340678 -2.669031 -0.300000
v 2.510229 -2.510229 -0.300000
v 2.669031 -2.340678 -0.300000
v 2.816404 -2.161103 -0.300000
v 2.951717 -1.972274 -0.300000
v 3.074390 -1.775000 -0.300000
v 3.183898 -1.570125 -0.300000
v 3.279772 -1.358526 -0.300000
v 3.361602 -1.141110 -0.300000
v 3.429037 -0.918808 -0.300000
v 3.481788 -0.692571 -0.300000
v 3.519629 -0.463368 -0.300000
v 3.542399 -0.232181 -0.300000
v 3.550000 0.000000 -0.300000
v 3.550000 0.000000 0.300000
v 3.542399 0.232181 -0.300000
v 3.542399 0.232181 0.300000
v 3.519629 0.463368 -0.300000
v 3.519629 0.463368 0.300000
v 3.481788 0.692571 -0.300000
v 3.481788 0.692571 0.300000
v 3.429037 0.918808 -0.300000
v 3.429037 0.918808 0.300000
v 3.361602 1.141110 -0.300000
v 3.361602 1.141110 0.300000
v 3.279772 1.358526 -0.300000
v 3.279772 1.358526 0.300000
v 3.183898 1.570125 -0.300000
v 3.183898 1.570125 0.300000
v 3.074390 1.775000 -0.300000
v 3.074390 1.775000 0.300000
v 2.951717 1.972274 -0.300000
v 2.951717 1.972274 0.300000
v 2.816404 2.161103 -0.300000
v 2.816404 2.161103 0.300000
v 2.669031 2.340678 -0.300000
v 2.669031 2.340678 0.300000
v 2.510229 2.510229 -0.300000
v 2.510229 2.510229 0.300000
v 2.340678 2.669031 -0.300000
v 2.340678 2.669031 0.300000
v 2.161103 2.816404 -0.300000
v 2.161103 2.816404 0.300000
v 1.972274 2.951717 -0.300000
v 1.972274 2.951717 0.300000
v 1.775000 3.074390 -0.300000
v 1.775000 3.074390 0.300000
v 1.570125 3.183898 -0.300000
v 1.570125 3.183898 0.300000
v 1.358526 3.279772 -0.300000
v 1.358526 3.279772 0.300000
v 1.141110 3.361602 -0.300000
v 1.141110 3.361602 0.300000
v 0.918808 3.429037 -0.300000
v 0.918808 3.429037 0.300000
v 0.692571 3.481788 -0.300000
v 0.692571 3.481788 0.300000
v 0.463368 3.519629 -0.300000
v 0.463368 3.519629 0.300000
v 0.232181 3.542399 -0.300000
v 0.232181 3.542399 0.300000
v 0.000000 3.550000 -0.300000
v 0.000000 3.550000 0.300000
v -0.232181 3.542399 -0.300000
v -0.232181 3.542399 0.300000
v -0.463368 3.519629 -0.300000
v -0.463368 3.519629 0.300000
v -0.692571 3.481788 -0.300000
v -0.692571 3.481788 0.300000
v -0.918808 3.429037 -0.300000
v -0.918808 3.429037 0.300000
v -1.141110 3.361602 -0.300000
v -1.141110 3.361602 0.300000
v -1.358526 3.279772 -0.300000
v -1.358526 3.279772 0.300000
v -1.570125 3.183898 -0.300000
v -1.570125 3.183898 0.300000
v -1.775000 3.074390 -0.300000
v -1.775000 3.074390 0.300000
v -1.972274 2.951717 -0.300000
v -1.972274 2.951717 0.300000
v -2.161103 2.816404 -0.300000
v -2.161103 2.816404 0.300000
v -2.340678 2.669031 -0.300000
v -2.340678 2.669031 0.300000
v -2.510229 2.510229 -0.300000
v -2.510229 2.510229 0.300000
v -2.669031 2.340678 -0.300000
v -2.669031 2.340678 0.300000
v -2.816404 2.161103 -0.300000
v -2.816404 2.161103 0.300000
v -2.951717 1.972274 -0.300000
v -2.951717 1.972274 0.300000
v -3.074390 1.775000 -0.300000
v -3.074390 1.775000 0.300000
v -3.183898 1.570125 -0.300000
v -3.183898 1.570125 0.300000
v -3.279772 1.358526 -0.300000
v -3.279772 1.358526 0.300000
v -3.361602 1.141110 -0.300000
v -3.361602 1.141110 0.300000
v -3.429037 0.918808 -0.300000
v -3.429037 0.918808 0.300000
v -3.481788 0.692571 -0.300000
v -3.481788 0.692571 0.300000
v -3.519629 0.463368 -0.300000
v -3.519629 0.463368 0.300000
v -3.542399 0.232181 -0.300000
v -3.542399 0.232181 0.300000
v -3.550000 0.000000 -0.300000
v -3.550000 0.000000 0.300000
v -3.542399 -0.232181 -0.300000
v -3.542399 -0.232181 0.300000
v -3.519629 -0.463368 -0.300000
v -3.519629 -0.463368 0.300000
v -3.481788 -0.692571 -0.300000
v -3.481788 -0.692571 0.300000
v -3.429037 -0.918808 -0.300000
v -3.429037 -0.918808 0.300000
v -3.361602 -1.141110 -0.300000
v -3.361602 -1.141110 0.300000
v -3.279772 -1.358526 -0.300000
v -3.279772 -1.358526 0.300000
v -3.183898 -1.570125 -0.300000
v -3.183898 -1.570125 0.300000
v -3.074390 -1.775000 -0.300000
v -3.074390 -1.775000 0.300000
v -2.951717 -1.972274 -0.300000
v -2.951717 -1.972274 0.300000
v -2.816404 -2.161103 -0.300000
v -2.816404 -2.161103 0.300000
v -2.669031 -2.340678 -0.300000
v -2.669031 -2.340678 0.300000
v -2.510229 -2.510229 -0.300000
v -2.510229 -2.510229 0.300000
v -2.340678 -2.669031 -0.300000
v -2.340678 -2.669031 0.300000
v -2.161103 -2.816404 -0.300000
v -2.161103 -2.816404 0.300000
v -1.972274 -2.951717 -0.300000
v -1.972274 -2.951717 0.300000
v -1.775000 -3.074390 -0.300000
v -1.775000 -3.074390 0.300000
v -1.570125 -3.183898 -0.300000
v -1.570125 -3.183898 0.300000
v -1.358526 -3.279772 -0.300000
v -1.358526 -3.279772 0.300000
v -1.141110 -3.361602 -0.300000
v -1.141110 -3.361602 0.300000
v -0.918808 -3.429037 -0.300000
v -0.918808 -3.429037 0.300000
v -0.692571 -3.481788 -0.300000
v -0.692571 -3.481788 0.300000
v -0.463368 -3.519629 -0.300000
v -0.463368 -3.519629 0.300000
v -0.232181 -3.542399 -0.300000
v -0.232181 -3.542399 0.300000
v -0.000000 -3.550000 -0.300000
v -0.000000 -3.550000 0.300000
v 0.232181 -3.542399 -0.300000
v 0.232181 -3.542399 0.300000
v 0.463368 -3.519629 -0.300000
v 0.463368 -3.519629 0.300000
v 0.692571 -3.481788 -0.300000
v 0.692571 -3.481788 0.300000
v 0.918808 -3.429037 -0.300000
v 0.918808 -3.429037 0.300000
v 1.141110 -3.361602 -0.300000
v 1.141110 -3.361602 0.300000
v 1.358526 -3.279772 -0.300000
v 1.358526 -3.279772 0.300000
v 1.570125 -3.183898 -0.300000
v 1.570125 -3.183898 0.300000
v 1.775000 -3.074390 -0.300000
v 1.775000 -3.074390 0.300000
v 1.972274 -2.951717 -0.300000
v 1.972274 -2.951717 0.300000
v 2.161103 -2.816404 -0.300000
v 2.161103 -2.816404 0.300000
v 2.340678 -2.669031 -0.300000
v 2.340678 -2.669031 0.300000
v 2.510229 -2.510229 -0.300000
v 2.510229 -2.510229 0.300000
v 2.669031 -2.340678 -0.300000
v 2.669031 -2.340678 0.300000
v 2.816404 -2.161103 -0.300000
v 2.816404 -2.161103 0.300000
v 2.951717 -1.972274 -0.300000
v 2.951717 -1.972274 0.300000
v 3.074390 -1.775000 -0.300000
v 3.074390 -1.775000 0.300000
v 3.183898 -1.570125 -0.300000
v 3.183898 -1.570125 0.300000
v 3.279772 -1.358526 -0.300000
v 3.279772 -1.358526 0.300000
v 3.361602 -1.141110 -0.300000
v 3.361602 -1.141110 0.300000
v 3.429037 -0.918808 -0.300000
v 3.429037 -0.918808 0.300000
v 3.481788 -0.692571 -0.300000
v 3.481788 -0.692571 0.300000
v 3.519629 -0.463368 -0.300000
v 3.519629 -0.463368 0.300000
v 3.542399 -0.232181 -0.300000
v 3.542399 -0.232181 0.300000
usemtl Cream
f 1 2 3 4
usemtl Red
f 5 6 7 8
usemtl Black
f 9 10 11 12
usemtl Red
f 13 14 15 16
usemtl Black
f 17 18 19 20
usemtl Green
f 21 22 23 24
usemtl Cream
f 25 26 27 28
usemtl Green
f 29 30 31 32
usemtl Cream
f 33 34 35 36
usemtl Red
f 37 38 39 40
usemtl Black
f 41 42 43 44
usemtl Red
f 45 46 47 48
usemtl Black
f 49 50 51 52
usemtl Green
f 53 54 55 56
usemtl Cream
f 57 58 59 60
usemtl Green
f 61 62 63 64
usemtl Cream
f 65 66 67 68
usemtl Red
f 69 70 71 72
usemtl Black
f 73 74 75 76
usemtl Red
f 77 78 79 80
usemtl Black
f 81 82 83 84
usemtl Green
f 85 86 87 88
usemtl Cream
f 89 90 91 92
usemtl Green
f 93 94 95 96
usemtl Cream
f 97 98 99 100
usemtl Red
f 101 102 103 104
usemtl Black
f 105 106 107 108
usemtl Red
f 109 110 111 112
usemtl Black
f 113 114 115 116
usemtl Green
f 117 118 119 120
usemtl Cream
f 121 122 123 124
usemtl Green
f 125 126 127 128
usemtl Cream
f 129 130 131 132
usemtl Red
f 133 134 135 136
usemtl Black
f 137 138 139 140
usemtl Red
f 141 142 143 144
usemtl Black
f 145 146 147 148
usemtl Green
f 149 150 151 152
usemtl Cream
f 153 154 155 156
usemtl Green
f 157 158 159 160
usemtl Cream
f 161 162 163 164
usemtl Red
f 165 166 167 168
usemtl Black
f 169 170 171 172
usemtl Red
f 173 174 175 176
usemtl Black
f 177 178 179 180
usemtl Green
f 181 182 183 184
usemtl Cream
f 185 186 187 188
usemtl Green
f 189 190 191 192
usemtl Cream
f 193 194 195 196
usemtl Red
f 197 198 199 200
usemtl Black
f 201 202 203 204
usemtl Red
f 205 206 207 208
usemtl Black
f 209 210 211 212
usemtl Green
f 213 214 215 216
usemtl Cream
f 217 218 219 220
usemtl Green
f 221 222 223 224
usemtl Cream
f 225 226 227 228
usemtl Red
f 229 230 231 232
usemtl Black
f 233 234 235 236
usemtl Red
f 237 238 239 240
usemtl Black
f 241 242 243 244
usemtl Green
f 245 246 247 248
usemtl Cream
f 249 250 251 252
usemtl Green
f 253 254 255 256
usemtl Cream
f 257 258 259 260
usemtl Red
f 261 262 263 264
usemtl Black
f 265 266 267 268
usemtl Red
f 269 270 271 272
usemtl Black
f 273 274 275 276
usemtl Green
f 277 278 279 280
usemtl Cream
f 281 282 283 284
usemtl Green
f 285 286 287 288
usemtl Cream
f 289 290 291 292
usemtl Red
f 293 294 295 296
usemtl Black
f 297 298 299 300
usemtl Red
f 301 302 303 304
usemtl Black
f 305 306 307 308
usemtl Green
f 309 310 311 312
usemtl Cream
f 313 314 315 316
usemtl Green
f 317 318 319 320
usemtl Red
f 321 322 323
f 321 323 324
f 321 324 325
f 321 325 326
f 321 326 327
f 321 327 328
f 321 328 329
f 321 329 330
f 321 330 331
f 321 331 332
f 321 332 333
f 321 333 334
f 321 334 335
f 321 335 336
f 321 336 337
f 321 337 338
f 321 338 339
f 321 339 340
f 321 340 341
f 321 341 342
f 321 342 343
f 321 343 344
f 321 344 345
f 321 345 346
f 321 346 347
f 321 347 348
f 321 348 349
f 321 349 350
f 321 350 351
f 321 351 352
f 321 352 353
f 321 353 354
f 321 354 355
f 321 355 356
f 321 356 357
f 321 357 358
f 321 358 359
f 321 359 360
f 321 360 361
f 321 361 362
f 321 362 363
f 321 363 364
f 321 364 365
f 321 365 366
f 321 366 367
f 321 367 368
f 321 368 369
f 321 369 370
f 321 370 371
f 321 371 372
f 321 372 373
f 321 373 374
f 321 374 375
f 321 375 376
f 321 376 377
f 321 377 378
f 321 378 379
f 321 379 380
f 321 380 381
f 321 381 382
f 321 382 383
f 321 383 384
f 321 384 385
f 321 385 386
f 321 386 387
f 321 387 388
f 321 388 389
f 321 389 390
f 321 390 391
f 321 391 392
f 321 392 393
f 321 393 394
f 321 394 395
f 321 395 396
f 321 396 397
f 321 397 398
f 321 398 399
f 321 399 400
f 321 400 401
f 321 401 402
f 321 402 403
f 321 403 404
f 321 404 405
f 321 405 406
f 321 406 407
f 321 407 408
f 321 408 409
f 321 409 410
f 321 410 411
f 321 411 412
f 321 412 413
f 321 413 414
f 321 414 415
f 321 415 416
f 321 416 417
f 321 417 322
usemtl Green
f 418 419 421 420
f 420 421 423 422
f 422 423 425 424
f 424 425 427 426
f 426 427 429 428
f 428 429 431 430
f 430 431 433 432
f 432 433 435 434
f 434 435 437 436
f 436 437 439 438
f 438 439 441 440
f 440 441 443 442
f 442 443 445 444
f 444 445 447 446
f 446 447 449 448
f 448 449 451 450
f 450 451 453 452
f 452 453 455 454
f 454 455 457 456
f 456 457 459 458
f 458 459 461 460
f 460 461 463 462
f 462 463 465 464
f 464 465 467 466
f 466 467 469 468
f 468 469 471 470
f 470 471 473 472
f 472 473 475 474
f 474 475 477 476
f 476 477 479 478
f 478 479 481 480
f 480 481 483 482
f 482 483 485 484
f 484 485 487 486
f 486 487 489 488
f 488 489 491 490
f 490 491 493 492
f 492 493 495 494
f 494 495 497 496
f 496 497 499 498
f 498 499 501 500
f 500 501 503 502
f 502 503 505 504
f 504 505 507 506
f 506 507 509 508
f 508 509 511 510
f 510 511 513 512
f 512 513 515 514
f 514 515 517 516
f 516 517 519 518
f 518 519 521 520
f 520 521 523 522
f 522 523 525 524
f 524 525 527 526
f 526 527 529 528
f 528 529 531 530
f 530 531 533 532
f 532 533 535 534
f 534 535 537 536
f 536 537 539 538
f 538 539 541 540
f 540 541 543 542
f 542 543 545 544
f 544 545 547 546
f 546 547 549 548
f 548 549 551 550
f 550 551 553 552
f 552 553 555 554
f 554 555 557 556
f 556 557 559 558
f 558 559 561 560
f 560 561 563 562
f 562 563 565 564
f 564 565 567 566
f 566 567 569 568
f 568 569 571 570
f 570 571 573 572
f 572 573 575 574
f 574 575 577 576
f 576 577 579 578
f 578 579 581 580
f 580 581 583 582
f 582 583 585 584
f 584 585 587 586
f 586 587 589 588
f 588 589 591 590
f 590 591 593 592
f 592 593 595 594
f 594 595 597 596
f 596 597 599 598
f 598 599 601 600
f 600 601 603 602
f 602 603 605 604
f 604 605 607 606
f 606 607 609 608
f 608 609 419 418
usemtl Rim
f 610 611 613 612
f 612 613 615 614
f 614 615 617 616
f 616 617 619 618
f 618 619 621 620
f 620 621 623 622
f 622 623 625 624
f 624 625 627 626
f 626 627 629 628
f 628 629 631 630
f 630 631 633 632
f 632 633 635 634
f 634 635 637 636
f 636 637 639 638
f 638 639 641 640
f 640 641 643 642
f 642 643 645 644
f 644 645 647 646
f 646 647 649 648
f 648 649 651 650
f 650 651 653 652
f 652 653 655 654
f 654 655 657 656
f 656 657 659 658
f 658 659 661 660
f 660 661 663 662
f 662 663 665 664
f 664 665 667 666
f 666 667 669 668
f 668 669 671 670
f 670 671 673 672
f 672 673 675 674
f 674 675 677 676
f 676 677 679 678
f 678 679 681 680
f 680 681 683 682
f 682 683 685 684
f 684 685 687 686
f 686 687 689 688
f 688 689 691 690
f 690 691 693 692
f 692 693 695 694
f 694 695 697 696
f 696 697 699 698
f 698 699 701 700
f 700 701 703 702
f 702 703 705 704
f 704 705 707 706
f 706 707 709 708
f 708 709 711 710
f 710 711 713 712
f 712 713 715 714
f 714 715 717 716
f 716 717 719 718
f 718 719 721 720
f 720 721 723 722
f 722 723 725 724
f 724 725 727 726
f 726 727 729 728
f 728 729 731 730
f 730 731 733 732
f 732 733 735 734
f 734 735 737 736
f 736 737 739 738
f 738 739 741 740
f 740 741 743 742
f 742 743 745 744
f 744 745 747 746
f 746 747 749 748
f 748 749 751 750
f 750 751 753 752
f 752 753 755 754
f 754 755 757 756
f 756 757 759 758
f 758 759 761 760
f 760 761 763 762
f 762 763 765 764
f 764 765 767 766
f 766 767 769 768
f 768 769 771 770
f 770 771 773 772
f 772 773 775 774
f 774 775 777 776
f 776 777 779 778
f 778 779 781 780
f 780 781 783 782
f 782 783 785 784
f 784 785 787 786
f 786 787 789 788
f 788 789 791 790
f 790 791 793 792
f 792 793 795 794
f 794 795 797 796
f 796 797 799 798
f 798 799 801 800
f 800 801 611 610
f 802 803 804
f 802 804 805
f 802 805 806
f 802 806 807
f 802 807 808
f 802 808 809
f 802 809 810
f 802 810 811
f 802 811 812
f 802 812 813
f 802 813 814
f 802 814 815
f 802 815 816
f 802 816 817
f 802 817 818
f 802 818 819
f 802 819 820
f 802 820 821
f 802 821 822
f 802 822 823
f 802 823 824
f 802 824 825
f 802 825 826
f 802 826 827
f 802 827 828
f 802 828 829
f 802 829 830
f 802 830 831
f 802 831 832
f 802 832 833
f 802 833 834
f 802 834 835
f 802 835 836
f 802 836 837
f 802 837 838
f 802 838 839
f 802 839 840
f 802 840 841
f 802 841 842
f 802 842 843
f 802 843 844
f 802 844 845
f 802 845 846
f 802 846 847
f 802 847 848
f 802 848 849
f 802 849 850
f 802 850 851
f 802 851 852
f 802 852 853
f 802 853 854
f 802 854 855
f 802 855 856
f 802 856 857
f 802 857 858
f 802 858 859
f 802 859 860
f 802 860 861
f 802 861 862
f 802 862 863
f 802 863 864
f 802 864 865
f 802 865 866
f 802 866 867
f 802 867 868
f 802 868 869
f 802 869 870
f 802 870 871
f 802 871 872
f 802 872 873
f 802 873 874
f 802 874 875
f 802 875 876
f 802 876 877
f 802 877 878
f 802 878 879
f 802 879 880
f 802 880 881
f 802 881 882
f 802 882 883
f 802 883 884
f 802 884 885
f 802 885 886
f 802 886 887
f 802 887 888
f 802 888 889
f 802 889 890
f 802 890 891
f 802 891 892
f 802 892 893
f 802 893 894
f 802 894 895
f 802 895 896
f 802 896 897
f 802 897 898
f 802 898 803
f 899 901 902 900
f 901 903 904 902
f 903 905 906 904
f 905 907 908 906
f 907 909 910 908
f 909 911 912 910
f 911 913 914 912
f 913 915 916 914
f 915 917 918 916
f 917 919 920 918
f 919 921 922 920
f 921 923 924 922
f 923 925 926 924
f 925 927 928 926
f 927 929 930 928
f 929 931 932 930
f 931 933 934 932
f 933 935 936 934
f 935 937 938 936
f 937 939 940 938
f 939 941 942 940
f 941 943 944 942
f 943 945 946 944
f 945 947 948 946
f 947 949 950 948
f 949 951 952 950
f 951 953 954 952
f 953 955 956 954
f 955 957 958 956
f 957 959 960 958
f 959 961 962 960
f 961 963 964 962
f 963 965 966 964
f 965 967 968 966
f 967 969 970 968
f 969 971 972 970
f 971 973 974 972
f 973 975 976 974
f 975 977 978 976
f 977 979 980 978
f 979 981 982 980
f 981 983 984 982
f 983 985 986 984
f 985 987 988 986
f 987 989 990 988
f 989 991 992 990
f 991 993 994 992
f 993 995 996 994
f 995 997 998 996
f 997 999 1000 998
f 999 1001 1002 1000
f 1001 1003 1004 1002
f 1003 1005 1006 1004
f 1005 1007 1008 1006
f 1007 1009 1010 1008
f 1009 1011 1012 1010
f 1011 1013 1014 1012
f 1013 1015 1016 1014
f 1015 1017 1018 1016
f 1017 1019 1020 1018
f 1019 1021 1022 1020
f 1021 1023 1024 1022
f 1023 1025 1026 1024
f 1025 1027 1028 1026
f 1027 1029 1030 1028
f 1029 1031 1032 1030
f 1031 1033 1034 1032
f 1033 1035 1036 1034
f 1035 1037 1038 1036
f 1037 1039 1040 1038
f 1039 1041 1042 1040
f 1041 1043 1044 1042
f 1043 1045 1046 1044
f 1045 1047 1048 1046
f 1047 1049 1050 1048
f 1049 1051 1052 1050
f 1051 1053 1054 1052
f 1053 1055 1056 1054
f 1055 1057 1058 1056
f 1057 1059 1060 1058
f 1059 1061 1062 1060
f 1061 1063 1064 1062
f 1063 1065 1066 1064
f 1065 1067 1068 1066
f 1067 1069 1070 1068
f 1069 1071 1072 1070
f 1071 1073 1074 1072
f 1073 1075 1076 1074
f 1075 1077 1078 1076
f 1077 1079 1080 1078
f 1079 1081 1082 1080
f 1081 1083 1084 1082
f 1083 1085 1086 1084
f 1085 1087 1088 1086
f 1087 1089 1090 1088
f 1089 899 900 1090
